<svg width="494.5100219726562px" height="120.8px" xmlns="http://www.w3.org/2000/svg" viewBox="2.7449890136718977 14.600000000000001 494.5100219726562 120.8" style="background: rgba(0, 0, 0, 0);" preserveAspectRatio="xMidYMid"><defs><filter id="editing-metal-beveled"><feGaussianBlur stdDeviation="4" in="SourceAlpha" result="blur"></feGaussianBlur><feSpecularLighting surfaceScale="5" specularConstant="0.8" specularExponent="7.5" lighting-color="#fff" in="blur" result="specular"><fePointLight x="-250" y="-50" z="300"></fePointLight></feSpecularLighting><feComposite operator="in" in="specular" in2="SourceAlpha" result="comp"></feComposite><feComposite in="SourceGraphic" in2="comp" operator="arithmetic" k1="0" k2="1" k3="1" k4="0"></feComposite></filter></defs><g filter="url(#editing-metal-beveled)"><g transform="translate(76.21002411842346, 97.43000030517578)"><path d="M42.62-26.56L42.62-26.56L42.62-26.56Q42.62 0.70 13.06 0.70L13.06 0.70L13.06 0.70Q8.32 0.70 0.51-0.45L0.51-0.45L7.68-38.27L7.68-38.27Q8.19-40.83 8.51-42.30L8.51-42.30L8.51-42.30Q18.24-43.01 22.56-43.01L22.56-43.01L22.56-43.01Q26.88-43.01 30.85-42.11L30.85-42.11L30.85-42.11Q34.82-41.22 37.44-39.23L37.44-39.23L37.44-39.23Q42.62-35.33 42.62-26.56ZM29.44-28.93L29.44-28.93L29.44-28.93Q29.44-38.46 22.59-38.46L22.59-38.46L21.95-38.46L21.95-38.46Q21.63-38.46 21.31-38.40L21.31-38.40L14.72-4.03L14.72-4.03Q14.98-3.90 15.23-3.90L15.23-3.90L15.74-3.90L15.74-3.90Q18.11-3.90 20.58-5.38L20.58-5.38L20.58-5.38Q23.04-6.85 24.96-9.86L24.96-9.86L24.96-9.86Q29.44-16.83 29.44-28.93ZM73.22-9.86L73.22-9.86L73.22-9.86Q74.43-8.32 74.43-5.82L74.43-5.82L74.43-5.82Q74.43-2.37 71.87-0.54L71.87-0.54L71.87-0.54Q69.31 1.28 65.28 1.28L65.28 1.28L65.28 1.28Q62.98 1.28 59.46 0.77L59.46 0.77L59.46 0.77Q52.54-0.32 50.43-0.32L50.43-0.32L50.43-0.32Q48.32-0.32 47.49-0.22L47.49-0.22L47.49-0.22Q46.66-0.13 45.31 0L45.31 0L53.18-42.24L80.77-42.24L80.77-42.24Q80.77-38.34 78.88-36.29L78.88-36.29L78.88-36.29Q76.99-34.24 73.28-34.24L73.28-34.24L73.28-34.24Q69.57-34.24 65.79-35.97L65.79-35.97L63.81-24.77L75.20-24.77L75.20-24.77Q75.20-21.38 73.54-19.49L73.54-19.49L73.54-19.49Q71.87-17.60 69.09-17.60L69.09-17.60L69.09-17.60Q66.30-17.60 64.58-18.24L64.58-18.24L64.58-18.24Q62.85-18.88 62.66-19.07L62.66-19.07L60.35-6.98L60.35-6.98Q61.89-6.78 64.77-6.78L64.77-6.78L64.77-6.78Q69.70-6.78 73.22-9.86ZM81.92-39.68L81.92-39.68L81.92-39.68Q83.78-43.52 88.93-43.52L88.93-43.52L88.93-43.52Q94.08-43.52 96.48-40.54L96.48-40.54L96.48-40.54Q98.88-37.57 98.88-30.72L98.88-30.72L98.88-7.87L114.43-42.18L122.05-42.18L102.14 0L87.17 0L85.25-30.72L85.25-30.72Q85.06-34.11 84.13-36.42L84.13-36.42L84.13-36.42Q83.20-38.72 81.92-39.68ZM146.82-9.86L146.82-9.86L146.82-9.86Q148.03-8.32 148.03-5.82L148.03-5.82L148.03-5.82Q148.03-2.37 145.47-0.54L145.47-0.54L145.47-0.54Q142.91 1.28 138.88 1.28L138.88 1.28L138.88 1.28Q136.58 1.28 133.06 0.77L133.06 0.77L133.06 0.77Q126.14-0.32 124.03-0.32L124.03-0.32L124.03-0.32Q121.92-0.32 121.09-0.22L121.09-0.22L121.09-0.22Q120.26-0.13 118.91 0L118.91 0L126.78-42.24L154.37-42.24L154.37-42.24Q154.37-38.34 152.48-36.29L152.48-36.29L152.48-36.29Q150.59-34.24 146.88-34.24L146.88-34.24L146.88-34.24Q143.17-34.24 139.39-35.97L139.39-35.97L137.41-24.77L148.80-24.77L148.80-24.77Q148.80-21.38 147.14-19.49L147.14-19.49L147.14-19.49Q145.47-17.60 142.69-17.60L142.69-17.60L142.69-17.60Q139.90-17.60 138.18-18.24L138.18-18.24L138.18-18.24Q136.45-18.88 136.26-19.07L136.26-19.07L133.95-6.98L133.95-6.98Q135.49-6.78 138.37-6.78L138.37-6.78L138.37-6.78Q143.30-6.78 146.82-9.86ZM180.67-9.86L180.67-9.86L180.67-9.86Q181.89-8.32 181.89-5.34L181.89-5.34L181.89-5.34Q181.89-2.37 179.62-0.54L179.62-0.54L179.62-0.54Q177.34 1.28 173.38 1.28L173.38 1.28L173.38 1.28Q171.07 1.28 167.49 0.77L167.49 0.77L167.49 0.77Q160.45-0.32 158.43-0.32L158.43-0.32L158.43-0.32Q156.42-0.32 155.58-0.22L155.58-0.22L155.58-0.22Q154.75-0.13 153.41 0L153.41 0L161.15-42.24L175.17-42.24L168.77-7.04L168.77-7.04Q169.60-6.91 170.37-6.91L170.37-6.91L171.97-6.91L171.97-6.91Q177.34-6.91 180.67-9.86ZM186.50-15.62L186.50-15.62L186.50-15.62Q186.50-27.71 192.77-35.33L192.77-35.33L192.77-35.33Q199.42-43.58 211.01-43.58L211.01-43.58L211.01-43.58Q219.39-43.58 223.62-39.52L223.62-39.52L223.62-39.52Q227.84-35.46 227.84-26.88L227.84-26.88L227.84-26.88Q227.84-13.82 221.18-6.21L221.18-6.21L221.18-6.21Q214.59 1.28 203.52 1.28L203.52 1.28L203.52 1.28Q194.88 1.28 190.69-3.04L190.69-3.04L190.69-3.04Q186.50-7.36 186.50-15.62ZM203.33-28.86L203.33-28.86L203.33-28.86Q200.45-17.34 200.45-8.26L200.45-8.26L200.45-8.26Q200.45-6.08 201.18-4.67L201.18-4.67L201.18-4.67Q201.92-3.26 203.87-3.26L203.87-3.26L203.87-3.26Q205.82-3.26 207.04-4.19L207.04-4.19L207.04-4.19Q208.26-5.12 209.22-7.23L209.22-7.23L209.22-7.23Q210.75-10.69 212.19-18.02L212.19-18.02L212.19-18.02Q213.63-25.34 213.76-28.38L213.76-28.38L213.76-28.38Q213.89-31.42 213.89-33.73L213.89-33.73L213.89-33.73Q213.89-36.03 213.18-37.50L213.18-37.50L213.18-37.50Q212.48-38.98 210.59-38.98L210.59-38.98L210.59-38.98Q208.70-38.98 207.42-37.82L207.42-37.82L207.42-37.82Q205.06-35.65 203.33-28.86ZM256-42.69L256-42.69L256-42.69Q271.68-42.69 271.68-31.62L271.68-31.62L271.68-31.62Q271.68-25.54 267.78-21.89L267.78-21.89L267.78-21.89Q263.94-18.24 257.22-18.24L257.22-18.24L257.22-18.24Q254.08-18.24 251.65-20.03L251.65-20.03L251.65-20.03Q250.50-20.80 249.73-21.82L249.73-21.82L249.73-21.82Q254.40-21.82 256.86-24.67L256.86-24.67L256.86-24.67Q259.33-27.52 259.33-33.09L259.33-33.09L259.33-33.09Q259.33-38.66 253.82-38.66L253.82-38.66L252.29-38.66L252.29-38.66Q251.90-38.66 251.58-38.59L251.58-38.59L244.22 0L230.34 0L238.21-41.92L238.21-41.92Q245.06-42.56 249.02-42.62L249.02-42.62L249.02-42.62Q252.99-42.69 256-42.69ZM299.33-9.86L299.33-9.86L299.33-9.86Q300.54-8.32 300.54-5.82L300.54-5.82L300.54-5.82Q300.54-2.37 297.98-0.54L297.98-0.54L297.98-0.54Q295.42 1.28 291.39 1.28L291.39 1.28L291.39 1.28Q289.09 1.28 285.57 0.77L285.57 0.77L285.57 0.77Q278.66-0.32 276.54-0.32L276.54-0.32L276.54-0.32Q274.43-0.32 273.60-0.22L273.60-0.22L273.60-0.22Q272.77-0.13 271.42 0L271.42 0L279.30-42.24L306.88-42.24L306.88-42.24Q306.88-38.34 304.99-36.29L304.99-36.29L304.99-36.29Q303.10-34.24 299.39-34.24L299.39-34.24L299.39-34.24Q295.68-34.24 291.90-35.97L291.90-35.97L289.92-24.77L301.31-24.77L301.31-24.77Q301.31-21.38 299.65-19.49L299.65-19.49L299.65-19.49Q297.98-17.60 295.20-17.60L295.20-17.60L295.20-17.60Q292.42-17.60 290.69-18.24L290.69-18.24L290.69-18.24Q288.96-18.88 288.77-19.07L288.77-19.07L286.46-6.98L286.46-6.98Q288.00-6.78 290.88-6.78L290.88-6.78L290.88-6.78Q295.81-6.78 299.33-9.86ZM319.55 0L305.86 0L313.66-42.05L313.66-42.05Q320.00-42.75 329.25-42.75L329.25-42.75L329.25-42.75Q338.50-42.75 342.78-40.06L342.78-40.06L342.78-40.06Q347.07-37.38 347.07-31.97L347.07-31.97L347.07-31.97Q347.07-26.56 344.29-23.17L344.29-23.17L344.29-23.17Q341.50-19.78 336.70-18.69L336.70-18.69L336.70-18.69Q337.79-13.38 340.29-9.09L340.29-9.09L340.29-9.09Q342.59-5.06 345.28-3.78L345.28-3.78L345.28-3.78Q344.32-1.09 342.37 0.10L342.37 0.10L342.37 0.10Q340.42 1.28 337.63 1.28L337.63 1.28L337.63 1.28Q334.85 1.28 332.67-0.35L332.67-0.35L332.67-0.35Q330.50-1.98 328.77-4.99L328.77-4.99L328.77-4.99Q325.12-11.52 324.74-21.82L324.74-21.82L325.18-21.82L325.18-21.82Q329.92-21.95 332.29-24.42L332.29-24.42L332.29-24.42Q334.66-26.88 334.66-32.06L334.66-32.06L334.66-32.06Q334.66-38.53 329.22-38.78L329.22-38.78L327.81-38.78L327.81-38.78Q327.23-38.78 326.91-38.72L326.91-38.72L319.55 0Z" fill="#444"></path></g></g><style>text {
  font-size: 64px;
  font-family: Arial Black;
  dominant-baseline: central;
  text-anchor: middle;
}</style></svg>